<svg width="26" height="26" viewBox="0 0 26 26" fill="none" xmlns="http://www.w3.org/2000/svg">
<path fill-rule="evenodd" clip-rule="evenodd" d="M13.0234 0.0974121C5.85795 0.0974121 0.0474854 6.00586 0.0474854 13.2949C0.0474854 19.126 3.76549 24.073 8.92122 25.8181C9.56972 25.9403 9.8078 25.5318 9.8078 25.1832C9.8078 24.8685 9.79577 23.8289 9.79018 22.7261C6.18026 23.5245 5.41853 21.1689 5.41853 21.1689C4.82826 19.6435 3.97778 19.2379 3.97778 19.2379C2.80048 18.4187 4.06653 18.4356 4.06653 18.4356C5.36954 18.5285 6.05563 19.7956 6.05563 19.7956C7.21296 21.8132 9.09119 21.2299 9.83165 20.8927C9.94811 20.0399 10.2844 19.4573 10.6555 19.1279C7.77335 18.7942 4.7436 17.6626 4.7436 12.6056C4.7436 11.1647 5.25049 9.98737 6.08056 9.06313C5.94583 8.7305 5.50168 7.3884 6.20626 5.57051C6.20626 5.57051 7.2959 5.21581 9.77557 6.92333C10.8106 6.63091 11.9207 6.48426 13.0234 6.47924C14.1262 6.48426 15.2371 6.63091 16.2741 6.92333C18.7507 5.21581 19.8389 5.57051 19.8389 5.57051C20.5452 7.3884 20.1008 8.7305 19.9661 9.06313C20.7981 9.98737 21.3015 11.1647 21.3015 12.6056C21.3015 17.6746 18.266 18.7907 15.3765 19.1174C15.8419 19.527 16.2567 20.3302 16.2567 21.5615C16.2567 23.3271 16.2416 24.7483 16.2416 25.1832C16.2416 25.5344 16.4752 25.946 17.1329 25.8164C22.2859 24.0693 25.9991 19.124 25.9991 13.2949C25.9991 6.00586 20.1895 0.0974121 13.0234 0.0974121Z" fill="white"/>
<path fill-rule="evenodd" clip-rule="evenodd" d="M4.96213 19.0462C4.93355 19.112 4.83213 19.1314 4.73973 19.0864C4.64562 19.0433 4.59276 18.954 4.62327 18.8882C4.6512 18.8206 4.75284 18.8021 4.84674 18.8469C4.94107 18.8901 4.99479 18.9804 4.96213 19.0462Z" fill="white"/>
<path fill-rule="evenodd" clip-rule="evenodd" d="M5.48772 19.6424C5.42583 19.7007 5.30486 19.6736 5.22277 19.5814C5.1379 19.4894 5.122 19.3664 5.18474 19.3071C5.24856 19.2488 5.36588 19.2761 5.45097 19.3681C5.53585 19.4612 5.55239 19.5834 5.48772 19.6424Z" fill="white"/>
<path fill-rule="evenodd" clip-rule="evenodd" d="M5.99934 20.4025C5.91983 20.4587 5.78983 20.406 5.70947 20.2886C5.62996 20.1713 5.62996 20.0305 5.71119 19.9741C5.79177 19.9178 5.91983 19.9685 6.00127 20.0849C6.08056 20.2041 6.08056 20.345 5.99934 20.4025Z" fill="white"/>
<path fill-rule="evenodd" clip-rule="evenodd" d="M6.70026 21.1368C6.62914 21.2166 6.47765 21.1952 6.36677 21.0863C6.25332 20.9799 6.22173 20.8289 6.29307 20.7491C6.36506 20.6691 6.5174 20.6916 6.62914 20.7996C6.74173 20.9058 6.77611 21.0579 6.70026 21.1368Z" fill="white"/>
<path fill-rule="evenodd" clip-rule="evenodd" d="M7.6672 21.5632C7.63583 21.6666 7.48993 21.7136 7.34296 21.6696C7.1962 21.6244 7.10015 21.5033 7.1298 21.3989C7.16031 21.2948 7.30686 21.2459 7.45491 21.2929C7.60145 21.3379 7.69772 21.4581 7.6672 21.5632Z" fill="white"/>
<path fill-rule="evenodd" clip-rule="evenodd" d="M8.72912 21.6423C8.73277 21.7512 8.60815 21.8414 8.45387 21.8432C8.29873 21.8469 8.17324 21.7588 8.17152 21.6517C8.17152 21.5418 8.29335 21.4524 8.44849 21.4498C8.60277 21.4467 8.72912 21.5341 8.72912 21.6423Z" fill="white"/>
<path fill-rule="evenodd" clip-rule="evenodd" d="M9.71734 21.4712C9.73582 21.5774 9.62859 21.6865 9.47539 21.7153C9.32476 21.7435 9.1853 21.6779 9.16618 21.5726C9.14749 21.4638 9.25664 21.3547 9.40706 21.3265C9.56048 21.2994 9.69778 21.3632 9.71734 21.4712Z" fill="white"/>
</svg>
