<svg width="36" height="36" viewBox="0 0 36 36" fill="none" xmlns="http://www.w3.org/2000/svg">
<path d="M19.3078 1.80092C18.9262 1.52839 18.4689 1.3819 18 1.3819C17.5311 1.3819 17.0738 1.52839 16.6922 1.80092L1.125 12.9203V34.8743H34.875V12.9203L19.3078 1.80092ZM32.625 28.3137L23.9041 22.7074L32.625 15.9245V28.3137ZM18 3.63179L31.952 13.5977L21.8977 21.4175L18 18.9119L14.1023 21.4175L4.04796 13.5977L18 3.63179ZM3.375 15.9245L12.0959 22.7074L3.375 28.3137V15.9245ZM32.625 32.6243H3.375V30.9885L18 21.5867L32.625 30.9885V32.6243Z" fill="black"/>
</svg>
