<svg width="46" height="46" viewBox="0 0 46 46" fill="none" xmlns="http://www.w3.org/2000/svg">
<path d="M40.3725 8.05505L40.311 8.0166L32.5312 4.18377L24.1341 15.3798L27.9974 20.5312C27.8818 22.4739 27.0579 24.3068 25.6818 25.6829C24.3056 27.0591 22.4727 27.8829 20.53 27.9985L15.3787 24.1352L4.18275 32.5321L7.98368 40.2469L8.01566 40.312L8.05421 40.3735C8.25704 40.7003 8.54015 40.9698 8.87659 41.1562C9.21302 41.3427 9.59158 41.44 9.97624 41.4387H11.9837C15.8517 41.4387 19.6818 40.6769 23.2553 39.1967C26.8288 37.7165 30.0758 35.5469 32.8109 32.8118C35.5459 30.0768 37.7155 26.8298 39.1957 23.2562C40.6759 19.6827 41.4377 15.8526 41.4377 11.9846V9.97708C41.439 9.59243 41.3417 9.21388 41.1553 8.87744C40.9688 8.54101 40.6993 8.25789 40.3725 8.05505V8.05505ZM38.5627 11.9846C38.5627 26.6404 26.6394 38.5637 11.9837 38.5637H10.3593L7.81621 33.4011L15.3793 27.7288L19.59 30.8867H20.0691C22.937 30.8835 25.6865 29.7428 27.7145 27.7149C29.7424 25.6869 30.8831 22.9374 30.8863 20.0695V19.5904L27.7284 15.3797L33.4 7.81714L38.5627 10.3607V11.9846Z" fill="black"/>
</svg>