<svg width="16" height="16" viewBox="0 0 16 16" fill="none" xmlns="http://www.w3.org/2000/svg">
<path fill-rule="evenodd" clip-rule="evenodd" d="M9.34698 14.7777C9.84356 14.9727 10.8318 15.3393 11.0463 15.2593C11.3357 15.1468 11.2633 12.7951 10.9385 12.7202C10.6785 12.6615 9.6828 13.3748 9.29045 13.6659C9.27518 13.6003 9.26063 13.5489 9.24896 13.5187C9.2191 13.4434 8.98861 13.4239 8.72717 13.45C8.28787 12.3627 7.96338 11.1187 8.16194 10.2368L8.16481 10.2388C8.43927 10.433 10.2667 11.0599 11.1733 11.0425C12.081 11.0245 13.5716 10.4593 13.4079 10.0063C13.245 9.55324 11.7645 10.4061 10.2203 10.2606C9.07681 10.1525 8.87496 9.63147 9.12819 9.25097C9.44665 8.77269 10.0268 9.34171 10.9836 9.05055C11.9419 8.76018 13.282 8.24044 13.7793 7.95741C14.929 7.30563 13.2982 7.03527 12.913 7.21613C12.548 7.38761 11.2773 7.71374 10.6878 7.85841C11.0193 6.67342 10.2243 4.61192 9.33758 3.70985C9.0485 3.41587 8.60404 3.23079 8.10327 3.13316C7.91065 2.86437 7.60004 2.60732 7.16019 2.36935C6.33917 1.9261 5.32337 1.74624 4.37888 1.91309C4.24891 1.93231 4.17728 1.98021 4.07635 1.99699C4.19002 2.00725 4.6208 2.21177 4.89146 2.32419C4.75928 2.37531 4.57872 2.40585 4.43776 2.46453C4.38005 2.4743 4.32484 2.48914 4.27496 2.51188C4.14188 2.57321 4.04235 2.80555 4.04327 2.91553C4.68945 2.84915 5.64568 2.89451 6.34452 3.10645C5.84992 3.1772 5.39565 3.30806 5.06727 3.48424C5.05213 3.49234 5.03715 3.50055 5.02233 3.50888C4.98299 3.52426 4.94692 3.54054 4.91465 3.55778C3.86112 4.12226 3.39573 5.4407 3.67312 7.02057C3.92626 8.45828 4.96396 13.3712 5.43909 15.6815C2.37693 14.5861 0.181885 11.6189 0.181885 8.13029C0.181885 3.71057 3.70506 0.127686 8.05112 0.127686C12.3972 0.127686 15.9203 3.71057 15.9203 8.13029C15.9203 11.8935 13.3661 15.05 9.9245 15.9047C9.71372 15.4914 9.51416 15.1056 9.34698 14.7777Z" fill="white"/>
<path fill-rule="evenodd" clip-rule="evenodd" d="M5.23404 6.83564C5.23404 6.50818 5.4945 6.24315 5.81696 6.24315C6.1385 6.24315 6.39927 6.50818 6.39927 6.83564C6.39927 7.16325 6.1385 7.42797 5.81696 7.42797C5.4945 7.42813 5.23404 7.16325 5.23404 6.83564ZM5.92419 6.63819C5.92419 6.72315 5.99219 6.7923 6.07496 6.79214C6.1585 6.79214 6.22635 6.72315 6.22635 6.63819C6.22635 6.55293 6.1585 6.4844 6.07496 6.4844C5.99204 6.4844 5.92419 6.55293 5.92419 6.63819ZM9.21035 6.48424C9.21035 6.20372 9.43511 5.97577 9.71065 5.97577C9.98773 5.97577 10.2116 6.20372 10.2116 6.48424C10.2116 6.76602 9.98773 6.99397 9.71065 6.99397C9.43511 6.99397 9.21035 6.76602 9.21035 6.48424ZM9.80388 6.31496C9.80388 6.38834 9.86219 6.44669 9.93281 6.44669C10.0065 6.44669 10.063 6.38834 10.063 6.31496C10.063 6.24252 10.0065 6.18307 9.93281 6.18307C9.86219 6.18307 9.80388 6.24252 9.80388 6.31496ZM5.9825 5.11887C5.9825 5.11887 5.54342 4.91689 5.1165 5.18975C4.69035 5.46229 4.70604 5.74093 4.70604 5.74093C4.70604 5.74093 4.47942 5.22729 5.08342 4.97556C5.68804 4.72383 5.9825 5.11887 5.9825 5.11887ZM10.012 5.07819C10.012 5.07819 9.6965 4.89483 9.45158 4.89796C8.94835 4.90469 8.81127 5.13076 8.81127 5.13076C8.81127 5.13076 8.89573 4.59178 9.53927 4.69989C9.88819 4.75887 10.012 5.07819 10.012 5.07819Z" fill="white"/>
</svg>
